<?xml version="1.0" standalone="no"?>
<!DOCTYPE svg PUBLIC "-//W3C//DTD SVG 20010904//EN"
 "http://www.w3.org/TR/2001/REC-SVG-20010904/DTD/svg10.dtd">
<svg version="1.0" xmlns="http://www.w3.org/2000/svg"
 width="512.000000pt" height="512.000000pt" viewBox="0 0 512.000000 512.000000"
 preserveAspectRatio="xMidYMid meet">
<metadata>
Created by potrace 1.11, written by Peter Selinger 2001-2013
</metadata>
<g transform="translate(0.000000,512.000000) scale(0.100000,-0.100000)"
fill="#000000" stroke="none">
<path d="M4082 4268 c-33 -35 -75 -81 -91 -103 -17 -22 -35 -45 -41 -52 -25
-30 -102 -157 -149 -244 -56 -105 -105 -229 -116 -296 -5 -33 -11 -43 -26 -43
-10 0 -19 7 -19 15 0 27 -60 138 -114 210 -178 237 -439 374 -739 389 -43 2
-79 0 -82 -3 -2 -4 8 -7 23 -7 192 -4 397 -71 538 -175 81 -59 190 -170 231
-235 40 -61 83 -143 89 -167 6 -24 4 -28 -12 -26 -41 6 -105 -14 -134 -41 -17
-16 -41 -32 -53 -36 -110 -32 -415 -224 -657 -413 -87 -67 -250 -225 -250
-241 0 -5 -12 -6 -27 -3 -38 7 -126 7 -193 -1 -87 -10 -192 -27 -230 -36 -19
-5 -46 -11 -60 -14 -14 -3 -42 -10 -62 -15 -35 -8 -38 -7 -39 13 -1 23 -5 47
-14 83 -4 18 -12 23 -37 23 -33 0 -73 -37 -203 -182 -22 -25 -46 -47 -54 -49
-11 -4 -8 -14 13 -47 14 -23 30 -42 34 -42 4 0 54 15 112 34 140 45 200 64
230 70 14 3 52 13 85 21 33 9 71 18 85 21 117 23 187 34 214 33 27 -2 28 -2 6
-6 -14 -3 -68 -16 -120 -29 -52 -14 -102 -27 -110 -29 -68 -17 -440 -140 -471
-156 -15 -7 -14 -13 6 -56 13 -26 44 -92 68 -145 l45 -97 64 27 c201 86 405
214 548 346 40 38 46 41 20 12 -28 -31 -125 -117 -187 -166 -44 -35 -174 -112
-290 -171 -76 -39 -139 -72 -141 -74 -2 -2 1 -11 6 -22 5 -10 14 -29 20 -43 5
-14 18 -42 27 -64 20 -44 37 -102 29 -93 -7 7 -74 159 -74 168 0 4 -21 51 -46
105 -127 271 -175 366 -200 391 l-27 27 -17 -21 c-9 -12 -77 -46 -151 -76
-222 -91 -584 -264 -779 -373 -285 -160 -545 -330 -545 -357 0 -5 24 -18 52
-27 29 -9 53 -16 53 -14 0 1 15 -2 33 -7 17 -5 85 -12 151 -16 115 -6 121 -7
202 -49 45 -24 93 -46 106 -48 13 -3 33 -7 44 -10 56 -12 106 -18 187 -21 49
-2 91 -6 94 -9 5 -5 -3 -18 -42 -73 -7 -9 -6 -16 3 -22 11 -7 10 -19 -4 -67
-45 -158 -89 -220 -190 -270 -41 -21 -74 -43 -74 -51 0 -7 5 -13 11 -13 5 0 8
4 5 9 -3 5 1 12 9 15 10 4 19 -2 24 -16 l8 -22 6 24 c4 17 11 21 26 17 14 -3
26 2 36 16 9 12 15 16 15 8 0 -21 26 4 40 40 7 16 18 28 25 25 8 -3 25 28 46
82 58 153 87 210 109 217 13 4 33 35 57 88 53 117 429 865 444 883 11 13 14
12 24 -13 11 -26 10 -29 -21 -45 -26 -14 -46 -44 -102 -155 -39 -76 -86 -168
-105 -205 -19 -38 -30 -68 -23 -68 6 1 70 21 141 46 72 25 135 46 140 48 6 2
21 8 35 13 14 6 35 13 48 17 32 11 28 -12 -5 -26 -16 -6 -41 -16 -58 -23 -16
-7 -41 -16 -55 -20 -14 -3 -34 -11 -45 -16 -11 -5 -67 -24 -125 -42 l-105 -33
-67 -134 c-37 -74 -67 -138 -67 -141 -1 -4 20 -4 47 -2 35 4 44 3 36 -6 -6 -6
-30 -13 -54 -15 -37 -3 -44 -7 -56 -36 -18 -41 -11 -51 26 -40 17 5 30 7 30 4
0 -2 17 3 38 10 20 8 73 16 117 19 55 3 92 11 115 25 71 40 97 51 175 72 50
14 101 36 137 61 l57 39 17 -36 c10 -20 23 -38 31 -41 22 -8 72 17 79 41 4 11
39 68 79 127 105 154 131 205 115 224 -11 13 -10 14 4 9 9 -3 16 -12 16 -20 0
-17 -60 -126 -74 -136 -8 -5 -7 -8 1 -8 6 0 24 18 40 40 15 23 56 70 90 105
34 35 70 76 79 90 15 24 18 24 34 10 29 -26 59 -107 100 -264 20 -80 44 -162
52 -181 24 -55 12 -89 -144 -430 -56 -123 -71 -175 -75 -274 -4 -99 -21 -155
-46 -157 -6 0 -3 -4 8 -8 11 -5 25 -6 32 -4 12 5 25 47 28 93 2 14 3 33 4 43
1 23 19 21 43 -5 l19 -23 -6 35 c-16 87 -16 112 0 176 27 107 68 211 154 386
60 123 81 178 87 223 4 33 9 71 10 85 6 43 6 283 0 323 -8 55 8 45 39 -25 14
-35 34 -79 42 -98 8 -19 29 -63 45 -97 38 -78 37 -88 -36 -348 -51 -184 -53
-193 -49 -290 7 -155 7 -155 -13 -170 -18 -14 -18 -14 8 -15 32 0 44 29 35 86
-9 56 1 70 31 42 28 -26 28 -24 -1 57 -8 22 -13 58 -10 80 2 22 4 49 4 60 0
44 43 217 81 325 38 109 41 121 41 235 1 103 -12 210 -38 323 -3 12 -7 30 -9
40 -2 9 -11 42 -19 73 l-15 57 30 33 c54 62 121 160 133 196 10 29 24 42 81
72 38 20 71 38 74 41 11 12 116 80 122 80 4 0 4 -28 1 -62 -15 -152 -4 -584
18 -718 6 -36 12 -108 14 -160 3 -106 22 -172 79 -275 62 -110 144 -178 165
-137 5 10 7 25 6 35 -5 30 14 18 30 -19 8 -21 22 -64 31 -98 9 -34 20 -67 26
-74 17 -20 34 3 37 50 1 23 4 44 6 46 2 2 12 -17 24 -42 11 -25 24 -46 29 -46
15 0 34 28 27 40 -3 5 -4 10 -1 10 3 0 15 -18 26 -40 28 -55 57 -52 51 5 0 6
5 2 12 -9 6 -10 19 -28 29 -40 16 -21 16 -21 37 -2 25 23 19 29 106 -99 71
-105 133 -184 174 -224 14 -13 33 -47 43 -75 9 -28 17 -42 18 -31 0 14 3 16
11 8 7 -7 12 -48 13 -97 1 -89 15 -94 17 -7 1 28 3 51 4 51 1 0 33 -39 71 -87
80 -102 155 -185 162 -178 5 5 -16 38 -50 77 -59 68 -145 186 -183 251 -15 26
-30 47 -35 47 -18 0 -137 178 -198 295 -60 116 -65 133 -54 177 10 40 0 88
-19 88 -5 0 -53 42 -106 93 -221 211 -265 251 -346 316 -46 38 -98 74 -116 82
-34 15 -35 18 -22 69 11 42 23 115 24 153 1 34 12 24 25 -24 20 -75 151 -228
249 -289 147 -94 270 -108 228 -27 -25 48 8 32 91 -47 75 -72 107 -86 99 -45
-2 11 -14 36 -26 56 -24 38 -22 37 40 -4 38 -26 51 -23 51 13 l0 25 33 -25
c36 -27 55 -23 52 12 -2 26 3 27 29 7 29 -22 45 -18 52 10 3 14 7 25 9 25 2 0
63 -29 137 -64 73 -35 171 -76 218 -92 86 -28 125 -52 141 -89 7 -16 8 -13 4
10 l-6 30 34 -37 c19 -20 40 -51 47 -68 7 -16 16 -30 21 -30 10 0 -9 58 -22
66 -5 3 -9 9 -9 14 0 11 31 2 172 -54 110 -44 166 -57 154 -37 -3 5 -18 12
-33 16 -36 9 -205 80 -268 113 -27 14 -62 32 -77 39 -15 8 -39 16 -54 19 -31
6 -241 109 -265 130 -8 8 -19 14 -23 14 -5 0 -37 21 -72 47 -59 43 -72 61 -78
100 -4 23 -35 53 -56 53 -11 0 -22 1 -25 1 -29 8 -125 31 -140 34 -23 5 -113
27 -202 49 -151 38 -272 58 -353 60 -19 1 -38 4 -41 9 -3 4 -2 31 2 60 8 61 4
508 -5 552 -4 17 -8 35 -11 41 -2 7 7 22 21 35 13 12 24 31 24 41 0 22 -54 78
-75 78 -21 0 -18 14 9 46 14 16 33 40 44 53 l19 24 21 -35 c29 -47 146 -157
203 -190 64 -38 109 -44 139 -20 25 20 30 36 31 93 0 40 -10 139 -16 148 -2 4
0 25 4 47 11 60 -11 110 -61 135 -43 22 -42 17 -23 111 33 164 217 501 349
642 31 33 56 61 56 63 0 8 -11 -1 -68 -59z m-476 -1026 c27 -23 76 -56 108
-72 33 -17 50 -30 39 -30 -66 0 -222 119 -263 201 -33 64 -23 65 23 2 24 -32
66 -78 93 -101z m-245 100 c-17 -22 -60 -66 -97 -98 -37 -32 -72 -63 -78 -69
-87 -78 -277 -202 -397 -260 -115 -55 -148 -60 -45 -6 111 57 437 277 476 320
3 3 32 28 65 56 33 27 68 60 78 72 10 13 21 23 24 23 2 0 -9 -17 -26 -38z
m-1564 -599 c-6 -42 -8 -44 -60 -61 -23 -7 -54 -17 -69 -22 -16 -5 -28 -7 -28
-5 0 8 85 91 114 111 39 27 49 22 43 -23z m-415 -325 c-12 -21 -34 -38 -72
-54 -313 -131 -403 -172 -592 -263 -81 -39 -152 -71 -157 -71 -5 0 -11 -4 -13
-8 -1 -5 -37 -26 -78 -47 -41 -22 -78 -44 -82 -49 -4 -6 -10 -8 -13 -4 -21 20
448 285 705 398 110 48 305 129 312 130 4 0 0 -14 -10 -32z m2328 -113 c53 -7
68 -10 108 -19 9 -2 38 -9 63 -15 98 -22 269 -95 269 -115 0 -2 -19 3 -42 11
-23 8 -61 18 -83 23 -22 5 -51 11 -65 14 -28 6 -113 24 -148 31 -13 2 -31 6
-40 9 -9 3 -33 8 -52 11 -19 3 -66 12 -105 20 -38 8 -92 17 -120 21 -37 5 -45
9 -30 14 24 9 168 6 245 -5z m-1480 -12 c0 -13 -54 -70 -77 -82 -34 -17 -28
-7 22 44 46 45 55 52 55 38z m1110 -256 c58 -32 158 -107 224 -167 78 -71 166
-171 166 -189 0 -6 4 -11 8 -11 7 0 20 -20 40 -64 3 -4 -22 17 -53 48 -32 31
-87 82 -123 114 -35 31 -74 66 -86 77 -29 27 -156 137 -185 161 -13 10 -28 24
-35 29 -6 6 -22 19 -36 29 l-25 18 25 -7 c14 -4 50 -21 80 -38z m-2200 -81
c-13 -12 -222 -65 -323 -81 -18 -3 -44 -8 -59 -11 -44 -9 -102 -17 -213 -29
-27 -3 -55 -7 -62 -10 -7 -2 -15 0 -18 5 -4 6 4 11 17 11 32 2 53 5 133 18
102 16 136 22 200 36 30 6 246 56 280 65 17 4 37 8 45 9 13 1 13 -1 0 -13z
m-780 -40 c0 -2 -8 -10 -17 -17 -16 -13 -17 -12 -4 4 13 16 21 21 21 13z
m1330 -51 c-17 -21 -66 -46 -107 -56 -49 -11 -40 6 15 26 26 10 58 26 71 37
27 21 40 16 21 -7z m-1240 -33 c0 -4 -26 -8 -57 -8 -50 -1 -52 -1 -18 5 62 10
75 10 75 3z m999 -68 c-30 -37 -108 -59 -157 -44 -15 5 -20 9 -12 10 52 4 98
14 134 30 51 23 51 23 35 4z m-739 -58 c36 -7 68 -13 73 -14 4 -1 22 -2 40 -2
23 0 28 -3 18 -9 -34 -22 -231 17 -231 45 0 3 8 3 18 -1 9 -4 46 -12 82 -19z"/>
<path d="M2638 4139 c-6 -4 4 -6 21 -5 17 0 31 4 31 8 0 8 -37 6 -52 -3z"/>
</g>
</svg>
